<svg xmlns="http://www.w3.org/2000/svg" width="24" height="24" viewBox="0 0 24 24" fill="none">
  <path d="M 12 21.5 Q 6 18 7.5 12.5 Q 9 8.5 11 8 Q 11.5 10 12 12 Q 13.5 9 15 6 Q 17.5 11 17 16 Q 16 21 12 21.5 Z" fill="#E89A6A"></path>
  <path d="M 12 20.5 Q 8 17.5 9 13 Q 10 10 11.5 10.5 Q 12 12.5 12.3 14 Q 13.5 12 14.5 9.5 Q 16 13 15.5 16.5 Q 14.5 19.5 12 20.5 Z" fill="#E8B26A"></path>
  <path d="M 12 19.5 Q 9.5 17 10.5 14 Q 11.5 12 12.3 12.5 Q 12.5 14 13 15 Q 14 13.5 14.3 12 Q 14.8 15 14.5 17 Q 13.5 19 12 19.5 Z" fill="#F0C878"></path>
  <ellipse cx="12.5" cy="17" rx="0.7" ry="1.4" fill="#FFE4B0"></ellipse>
  <circle cx="17" cy="9" r="0.5" fill="#FFD27A"></circle>
  <circle cx="6.5" cy="11" r="0.4" fill="#FFD27A"></circle>
</svg>