<svg xmlns="http://www.w3.org/2000/svg" width="24" height="24" viewBox="0 0 24 24" fill="none">
  <ellipse cx="12" cy="14" rx="6" ry="8" fill="rgba(232,178,106,0.4)"></ellipse>
  <path d="M 12 22 Q 5 18 6 11.5 Q 7.5 7 9.5 6 Q 10 9 11 11 Q 12.5 7 13 4 Q 14 7 13.8 10 Q 15.5 7.5 16.5 5 Q 18.5 10 18 16 Q 17 21.5 12 22 Z" fill="#E89A6A"></path>
  <path d="M 12 21 Q 7 18 8 13 Q 9 9.5 10.5 9 Q 11 11 11.8 12 Q 13 9 13.5 7 Q 15 11 14.5 13 Q 16 11 16 9 Q 17 13 16.5 17 Q 15.5 20 12 21 Z" fill="#E8B26A"></path>
  <path d="M 12 20 Q 9 18 10 14 Q 11 12 12 12 Q 12.3 14 12.8 15 Q 14 13 14.3 11 Q 15 14 14.5 17 Q 13.5 19.5 12 20 Z" fill="#F0C878"></path>
  <path d="M 12 19 Q 11 17 12 14.5 Q 12.7 13.5 13 14.5 Q 13.5 16 13.2 17 Q 13.5 18 12.7 19 Z" fill="#FFE4B0"></path>
  <circle cx="18" cy="8" r="0.5" fill="#FFD27A"></circle>
  <circle cx="5" cy="10" r="0.45" fill="#FFD27A"></circle>
  <circle cx="16" cy="4" r="0.35" fill="#FFD27A" opacity="0.7"></circle>
  <circle cx="7" cy="6" r="0.3" fill="#FFD27A" opacity="0.6"></circle>
</svg>