<svg xmlns="http://www.w3.org/2000/svg" width="24" height="24" viewBox="0 0 24 24" fill="none">
  <path d="M 12 21 Q 7 18 8.5 13 Q 9.5 10 11.5 9.5 Q 11.8 11 12 12.5 Q 13.5 11 14.5 8.5 Q 16.5 12 16 16 Q 15 20 12 21 Z" fill="#E89A6A"></path>
  <path d="M 12 20 Q 9 17.5 10 14 Q 11 12 12 12.5 Q 12.3 14 12.5 15 Q 13.5 14 14 12 Q 15 14.5 14.5 17 Q 14 19 12 20 Z" fill="#E8B26A"></path>
  <path d="M 12 19 Q 10.5 17 11.5 15 Q 12 14 12.3 14.5 Q 13 16 12.7 17 Q 13.5 17 13 18.5 Z" fill="#FFE4B0"></path>
</svg>