<svg xmlns="http://www.w3.org/2000/svg" width="24" height="24" viewBox="0 0 24 24" fill="none">
  <ellipse cx="12" cy="13" rx="8" ry="10" fill="rgba(232,178,106,0.4)"></ellipse>
  <ellipse cx="12" cy="14" rx="6" ry="8" fill="rgba(232,178,106,0.4)" opacity="0.6"></ellipse>
  <path d="M 12 22.5 Q 3.5 19 4.5 11 Q 6 5 8.5 4 Q 9 8 10 10.5 Q 11.5 5 12 1.5 Q 13 5.5 13 10 Q 14.5 4.5 15.5 2.5 Q 16.5 7 16 10 Q 18 7 19.5 4.5 Q 21 11 20.5 17 Q 19 22 12 22.5 Z" fill="#E89A6A"></path>
  <path d="M 12 22 Q 5 19 6 12 Q 7.5 7 9.5 7 Q 10 10 11 12 Q 12.5 6 13 3.5 Q 14 7 13.8 10.5 Q 15.5 6.5 16.5 4.5 Q 18 9 17.5 14 Q 17 19 12 22 Z" fill="#E8B26A"></path>
  <path d="M 12 21 Q 7 18.5 8 13 Q 9.5 9 11 9 Q 11.5 11 12 12.5 Q 13 8.5 13.5 6.5 Q 14.5 10 14.3 13 Q 16 10 16 8.5 Q 17 13 16 17 Q 15 20 12 21 Z" fill="#F0C878"></path>
  <path d="M 12 20 Q 9.5 18 10.5 14 Q 11.5 12 12 12.5 Q 12.5 14 13 15 Q 14 12.5 14.3 11 Q 15 14 14.5 17 Q 13.5 19 12 20 Z" fill="#FFE4B0"></path>
  <path d="M 12 19 Q 11 17 12 14.5 Q 12.7 13.5 13 14.5 Q 13.5 16 13.2 17 Q 13.5 18 12.7 19 Z" fill="#FFF1D0"></path>
  <circle cx="20" cy="6" r="0.6" fill="#FFD27A"></circle>
  <circle cx="4" cy="8" r="0.55" fill="#FFD27A"></circle>
  <circle cx="18" cy="2" r="0.4" fill="#FFD27A" opacity="0.8"></circle>
  <circle cx="6" cy="3" r="0.4" fill="#FFD27A" opacity="0.7"></circle>
  <circle cx="22" cy="11" r="0.35" fill="#FFD27A" opacity="0.6"></circle>
  <circle cx="2.5" cy="13" r="0.35" fill="#FFD27A" opacity="0.5"></circle>
  <circle cx="15" cy="0.5" r="0.3" fill="#FFD27A" opacity="0.5"></circle>
</svg>